<svg xmlns="http://www.w3.org/2000/svg" viewBox="0 0 423.2 434.84"><defs><style>.cls-1{fill:#f4d938;stroke:#000;stroke-miterlimit:10;stroke-width:0.5px;}.cls-2{font-size:12px;font-family:MyriadPro-Regular, Myriad Pro;}.cls-2,.cls-4{fill:#231f20;}.cls-3,.cls-4,.cls-5,.cls-8{font-size:18px;}.cls-3{fill:#8e8d8d;}.cls-3,.cls-4{font-family:SegoeUI-Semilight, Segoe UI;font-weight:300;}.cls-5{fill:#efce2a;}.cls-5,.cls-8{font-family:SegoeUI-Bold, Segoe UI;font-weight:700;}.cls-6{fill:#e96549;}.cls-7{fill:#8ec740;}.cls-8{fill:#fff;}.cls-9{letter-spacing:-0.15em;}</style></defs><title>searchAsset 4</title><g id="Layer_2" data-name="Layer 2"><g id="Layer_5" data-name="Layer 5"><circle class="cls-1" cx="233.2" cy="207.5" r="174.5"/><text class="cls-2" transform="translate(276.2 216.5)">f4d938</text><text class="cls-3" transform="translate(272.36 37.04) rotate(13.78)"> </text><text class="cls-3" transform="matrix(0.94, 0.35, -0.35, 0.94, 290.6, 42.28)">1</text><text class="cls-3" transform="translate(309.83 50.26) rotate(26.72)"> </text><text class="cls-3" transform="translate(326.41 59.41) rotate(33.73)">2</text><text class="cls-3" transform="translate(345.4 73.3) rotate(40.76)"> </text><text class="cls-3" transform="translate(359.28 86.21) rotate(47.76)">3</text><text class="cls-3" transform="matrix(0.58, 0.82, -0.82, 0.58, 374.32, 104.25)"> </text><text class="cls-3" transform="translate(384.69 120.13) rotate(61.73)">4</text><text class="cls-3" transform="matrix(0.36, 0.93, -0.93, 0.36, 395.11, 141.64)"> </text><text class="cls-3" transform="translate(401.32 159.54) rotate(75.68)">5</text><text class="cls-3" transform="translate(406.17 182.56) rotate(82.67)"> </text><text class="cls-3" transform="translate(407.88 201.45) rotate(89.69)">6</text><text class="cls-4" transform="translate(407.01 224.91) rotate(96.71)"> </text><text class="cls-5" transform="translate(404.07 243.65) rotate(103.55)">z</text><text class="cls-4" transform="matrix(-0.35, 0.94, -0.94, -0.35, 397.85, 265.45)"> </text><text class="cls-3" transform="translate(390.61 282.99) rotate(117.23)">8</text><text class="cls-3" transform="matrix(-0.56, 0.83, -0.83, -0.56, 378.99, 303.4)"> </text><text class="cls-3" transform="matrix(-0.66, 0.75, -0.75, -0.66, 367.73, 318.66)">9</text><text class="cls-3" transform="matrix(-0.75, 0.67, -0.67, -0.75, 351.48, 335.66)"> </text><text class="cls-3" transform="translate(338.26 346.67) rotate(144.21)">1</text><text class="cls-3" transform="translate(322.49 357.25) rotate(150.87)">0</text><text class="cls-4" transform="translate(303.11 367.13) rotate(157.23)"> </text><text class="cls-5" transform="matrix(-0.96, 0.28, -0.28, -0.96, 287.08, 373.27)">1</text><text class="cls-5" transform="matrix(-0.99, 0.15, -0.15, -0.99, 265.2, 378.83)">1</text><path class="cls-6" d="M234.85,206.43,66.53,254.29c0,.16.08.32.13.48A174.5,174.5,0,0,0,282.23,374.89l.48-.14Z"/><path class="cls-7" d="M268,36.58A174.49,174.49,0,0,0,61.53,171.73l341.63,71.32A174.48,174.48,0,0,0,268,36.58Z"/><text class="cls-4" transform="translate(198.6 15.3)">Midnight</text><text class="cls-4" transform="translate(211.69 407.38)">Noon</text><text class="cls-8" transform="translate(78.28 214.06)"><tspan class="cls-9">P</tspan><tspan x="8.36" y="0">.M.</tspan></text><text class="cls-8" transform="translate(346.12 209.74)">A.M.</text></g><g id="Layer_1_copy_5" data-name="Layer 1 copy 5"><text class="cls-4" transform="matrix(-1, 0.02, -0.02, -1, 239.45, 380.95)"> </text><text class="cls-4" transform="matrix(-1, -0.09, 0.09, -1, 220.44, 380.6)"> </text><text class="cls-4" transform="matrix(-0.98, -0.2, 0.2, -0.98, 201.61, 378.18)"> </text><text class="cls-3" transform="translate(183.14 373.72) rotate(-162.17)">1</text><text class="cls-3" transform="translate(163.62 366.55) rotate(-155.66)"> </text><text class="cls-3" transform="matrix(-0.85, -0.52, 0.52, -0.85, 146.66, 358.1)">2</text><text class="cls-3" transform="matrix(-0.79, -0.62, 0.62, -0.79, 127.09, 345.06)"> </text><text class="cls-3" transform="matrix(-0.7, -0.71, 0.71, -0.7, 112.63, 332.78)">3</text><text class="cls-3" transform="matrix(-0.61, -0.79, 0.79, -0.61, 96.79, 315.42)"> </text><text class="cls-3" transform="matrix(-0.51, -0.86, 0.86, -0.51, 85.74, 300.03)">4</text><text class="cls-4" transform="matrix(-0.4, -0.92, 0.92, -0.4, 74.43, 279)"> </text><text class="cls-5" transform="translate(67.47 261.36) rotate(-106.59)">5</text><text class="cls-4" transform="translate(61.49 237.73) rotate(-99.57)"> </text><text class="cls-3" transform="translate(59.05 218.92) rotate(-92.57)">6</text><text class="cls-4" transform="translate(58.99 195.42) rotate(-85.55)"> </text><text class="cls-5" transform="matrix(0.2, -0.98, 0.98, 0.2, 61.16, 176.6)">7</text><text class="cls-4" transform="matrix(0.32, -0.95, 0.95, 0.32, 67.09, 152.94)"> </text><text class="cls-3" transform="translate(73.84 135.24) rotate(-64.33)">8</text><text class="cls-3" transform="translate(84.9 114.51) rotate(-57.4)"> </text><text class="cls-3" transform="translate(95.72 98.92) rotate(-50.45)">9</text><text class="cls-3" transform="translate(111.44 81.44) rotate(-43.48)"> </text><text class="cls-3" transform="matrix(0.8, -0.6, 0.6, 0.8, 125.72, 68.93)">1</text><text class="cls-3" transform="matrix(0.86, -0.5, 0.5, 0.86, 141.28, 58.05)">0</text><text class="cls-3" transform="matrix(0.92, -0.4, 0.4, 0.92, 160.46, 47.84)"> </text><text class="cls-3" transform="translate(176.44 41.45) rotate(-17.83)">1</text><text class="cls-3" transform="matrix(0.98, -0.2, 0.2, 0.98, 194.76, 36.25)">1</text></g></g></svg>